<svg xmlns="http://www.w3.org/2000/svg" width="35.631" height="31.666" viewBox="0 0 35.631 31.666">
  <path id="awesome-edit" d="M24.9,5.148l5.58,5.58a.6.6,0,0,1,0,.854l-13.51,13.51-5.741.637A1.2,1.2,0,0,1,9.9,24.4l.637-5.741,13.51-13.51A.6.6,0,0,1,24.9,5.148ZM34.926,3.731,31.907.712a2.419,2.419,0,0,0-3.415,0L26.3,2.9a.6.6,0,0,0,0,.854l5.58,5.58a.6.6,0,0,0,.854,0l2.19-2.19a2.419,2.419,0,0,0,0-3.415ZM23.754,21.417v6.3H3.959V7.919H18.174A.761.761,0,0,0,18.7,7.7l2.474-2.474a.742.742,0,0,0-.526-1.268H2.969A2.97,2.97,0,0,0,0,6.929V28.7a2.97,2.97,0,0,0,2.969,2.969H24.744A2.97,2.97,0,0,0,27.713,28.7V18.942a.744.744,0,0,0-1.268-.526l-2.474,2.474A.761.761,0,0,0,23.754,21.417Z" transform="translate(0 -0.007)" fill="#7a65ff"/>
</svg>
