<svg xmlns="http://www.w3.org/2000/svg" width="79" height="77" viewBox="0 0 79 77">
  <g id="logo_" transform="translate(-115 -71)">
    <g id="logo" transform="translate(115 70.613)">
      <rect id="Rectángulo_59" data-name="Rectángulo 59" width="79" height="77" rx="38.5" transform="translate(0 0.387)" fill="#fff"/>
    </g>
    <g id="Grupo_3" data-name="Grupo 3" transform="translate(-798.409 333.292)">
      <path id="Trazado_1" data-name="Trazado 1" d="M935.025-198.954c-4.846-5.618-4.143-6.531-6.32-6.25a2.978,2.978,0,0,0-2.036,2.247c-.558,2.376,2.318,16.292,20.366,18.189,5.436.463,11.587-.281,15.59-4.916,2.046-1.395,5.025-6.564,5.688-11.728.362-1.736.043-6.85-.821-7.066-.47-.976-1.12,1.986-1.216,2.5-.56,2.984-2.028,8.613-7.513,11.382C953.775-191.719,939.871-193.336,935.025-198.954Z" transform="translate(5.377 -20.865)" fill="#dd1728"/>
      <path id="Trazado_2" data-name="Trazado 2" d="M957.013-226.707c-.341.042-1.143-.322-1.87-1.579a7.6,7.6,0,0,1-1.039-3.449c-.165-2.388.281-4.872,1.288-5.859.565-.554,1.766.291,2.618,1.911a11.28,11.28,0,0,1,.79,4.571C958.862-229.356,958.467-226.873,957.013-226.707Z" transform="translate(-13.054 -1.344)" fill="#dd1728"/>
      <path id="Trazado_3" data-name="Trazado 3" d="M957.013-226.707c-.341.042-1.143-.322-1.87-1.579a7.6,7.6,0,0,1-1.039-3.449c-.165-2.388.281-4.872,1.288-5.859.565-.554,1.766.291,2.618,1.911a11.28,11.28,0,0,1,.79,4.571C958.862-229.356,958.467-226.873,957.013-226.707Z" transform="translate(2.077 -4.304)" fill="#dd1728"/>
    </g>
  </g>
</svg>
